<?xml version="1.0" encoding="UTF-8"?>
<svg xmlns="http://www.w3.org/2000/svg" xmlns:xlink="http://www.w3.org/1999/xlink" width="25px" height="25px" viewBox="0 0 25 25" version="1.1">
<g id="surface1">
<path style=" stroke:none;fill-rule:nonzero;fill:rgb(0%,0%,0%);fill-opacity:1;" d="M 12.042969 1.617188 C 11.5625 1.726562 11.019531 2.132812 10.761719 2.574219 C 10.578125 2.890625 10.484375 3.335938 10.511719 3.734375 L 10.542969 4.082031 L 8.292969 5.164062 L 6.039062 6.253906 L 5.839844 6.0625 C 5.546875 5.785156 5.382812 5.683594 5.03125 5.566406 C 4.769531 5.476562 4.640625 5.464844 4.3125 5.484375 C 3.566406 5.527344 2.945312 5.945312 2.621094 6.628906 C 2.480469 6.933594 2.464844 6.996094 2.464844 7.445312 C 2.472656 7.835938 2.492188 7.988281 2.582031 8.21875 C 2.796875 8.753906 3.46875 9.320312 3.996094 9.402344 C 4.140625 9.429688 4.199219 9.457031 4.199219 9.519531 C 4.199219 9.644531 4.53125 14.1875 4.566406 14.5 L 4.59375 14.773438 L 4.214844 14.824219 C 3.5 14.921875 2.933594 15.328125 2.621094 15.960938 C 2.480469 16.257812 2.464844 16.324219 2.464844 16.773438 C 2.472656 17.390625 2.582031 17.703125 2.953125 18.109375 C 3.585938 18.789062 4.46875 18.964844 5.296875 18.582031 C 5.605469 18.445312 5.996094 18.09375 6.132812 17.847656 C 6.183594 17.753906 6.25 17.683594 6.285156 17.695312 C 6.324219 17.714844 10.226562 20.339844 10.636719 20.628906 C 10.640625 20.632812 10.609375 20.78125 10.566406 20.953125 C 10.238281 22.222656 11.175781 23.402344 12.5 23.402344 C 13.828125 23.40625 14.761719 22.214844 14.433594 20.945312 C 14.394531 20.800781 14.375 20.664062 14.386719 20.644531 C 14.410156 20.605469 18.636719 17.730469 18.714844 17.695312 C 18.75 17.683594 18.820312 17.753906 18.867188 17.847656 C 19.007812 18.109375 19.398438 18.445312 19.746094 18.609375 C 20.367188 18.894531 21.078125 18.84375 21.671875 18.457031 C 21.996094 18.246094 22.21875 17.992188 22.402344 17.59375 C 22.519531 17.339844 22.535156 17.253906 22.535156 16.796875 C 22.535156 16.324219 22.519531 16.257812 22.378906 15.964844 C 22.042969 15.277344 21.292969 14.792969 20.550781 14.792969 L 20.40625 14.792969 L 20.433594 14.511719 C 20.46875 14.195312 20.800781 9.648438 20.800781 9.519531 C 20.800781 9.460938 20.855469 9.429688 20.988281 9.402344 C 21.535156 9.320312 22.203125 8.765625 22.417969 8.21875 C 22.511719 7.988281 22.53125 7.835938 22.535156 7.445312 C 22.535156 6.996094 22.519531 6.933594 22.378906 6.628906 C 22.0625 5.957031 21.441406 5.53125 20.714844 5.484375 C 20.097656 5.4375 19.632812 5.609375 19.183594 6.039062 L 18.964844 6.25 L 14.457031 4.078125 L 14.488281 3.734375 C 14.515625 3.347656 14.425781 2.878906 14.25 2.59375 C 14.101562 2.34375 13.730469 1.96875 13.492188 1.832031 C 13.097656 1.597656 12.5 1.507812 12.042969 1.617188 Z M 13.003906 2.464844 C 13.632812 2.761719 13.882812 3.535156 13.550781 4.140625 C 13.335938 4.535156 12.929688 4.785156 12.5 4.785156 C 11.605469 4.785156 11.015625 3.785156 11.445312 2.992188 C 11.582031 2.738281 11.859375 2.503906 12.132812 2.402344 C 12.339844 2.324219 12.785156 2.359375 13.003906 2.464844 Z M 11.066406 4.9375 C 11.273438 5.160156 11.5625 5.347656 11.855469 5.449219 L 12.109375 5.542969 L 12.109375 7.078125 L 9.253906 7.078125 C 6.886719 7.078125 6.398438 7.070312 6.398438 7.011719 C 6.398438 6.976562 7.320312 6.503906 8.632812 5.867188 C 9.859375 5.273438 10.878906 4.789062 10.894531 4.785156 C 10.910156 4.785156 10.980469 4.851562 11.066406 4.9375 Z M 16.363281 5.867188 C 17.660156 6.492188 18.605469 6.976562 18.605469 7.015625 C 18.605469 7.070312 18.097656 7.078125 15.746094 7.078125 L 12.890625 7.078125 L 12.890625 5.53125 L 13.101562 5.46875 C 13.390625 5.386719 13.664062 5.214844 13.890625 4.984375 C 13.996094 4.871094 14.09375 4.785156 14.101562 4.785156 C 14.117188 4.785156 15.132812 5.273438 16.363281 5.867188 Z M 4.960938 6.386719 C 5.402344 6.609375 5.636719 6.992188 5.636719 7.46875 C 5.636719 8.378906 4.664062 8.953125 3.867188 8.519531 C 2.726562 7.898438 3.226562 6.167969 4.523438 6.269531 C 4.660156 6.277344 4.859375 6.332031 4.960938 6.386719 Z M 21.085938 6.375 C 22.003906 6.832031 21.988281 8.121094 21.066406 8.570312 C 20.796875 8.699219 20.304688 8.695312 20.042969 8.558594 C 19.621094 8.335938 19.371094 7.933594 19.371094 7.46875 C 19.367188 6.570312 20.292969 5.980469 21.085938 6.375 Z M 12.109375 9.03125 C 12.109375 10.117188 12.105469 10.203125 12.027344 10.203125 C 11.886719 10.210938 11.519531 10.390625 11.246094 10.601562 L 10.988281 10.789062 L 9.046875 9.671875 C 7.980469 9.058594 6.9375 8.460938 6.738281 8.34375 C 6.539062 8.230469 6.363281 8.128906 6.351562 8.125 C 6.34375 8.113281 6.347656 8.050781 6.367188 7.984375 L 6.398438 7.859375 L 12.109375 7.859375 Z M 18.632812 7.984375 C 18.652344 8.050781 18.65625 8.113281 18.648438 8.125 C 18.636719 8.128906 17.59375 8.734375 16.324219 9.46875 L 14.019531 10.796875 L 13.785156 10.613281 C 13.527344 10.414062 13.109375 10.203125 12.980469 10.203125 C 12.894531 10.203125 12.890625 10.117188 12.890625 9.03125 L 12.890625 7.859375 L 18.605469 7.859375 Z M 8.257812 10.125 L 10.570312 11.464844 L 10.546875 11.625 C 10.511719 11.890625 10.519531 12.460938 10.5625 12.621094 L 10.601562 12.769531 L 9.652344 13.316406 C 9.132812 13.617188 8.683594 13.867188 8.652344 13.875 C 8.625 13.886719 7.960938 12.78125 7.179688 11.429688 C 5.820312 9.082031 5.761719 8.96875 5.839844 8.882812 C 5.882812 8.828125 5.929688 8.789062 5.933594 8.789062 C 5.941406 8.789062 6.988281 9.390625 8.257812 10.125 Z M 19.160156 8.882812 C 19.238281 8.96875 19.179688 9.082031 17.824219 11.429688 C 17.042969 12.78125 16.378906 13.886719 16.351562 13.875 C 16.324219 13.871094 15.875 13.617188 15.351562 13.316406 L 14.398438 12.769531 L 14.4375 12.621094 C 14.484375 12.460938 14.488281 11.941406 14.453125 11.648438 L 14.429688 11.460938 L 16.722656 10.132812 C 17.988281 9.398438 19.035156 8.792969 19.046875 8.792969 C 19.0625 8.789062 19.117188 8.828125 19.160156 8.882812 Z M 6.507812 11.835938 C 7.28125 13.171875 7.910156 14.28125 7.910156 14.296875 C 7.90625 14.316406 7.460938 14.585938 6.914062 14.898438 L 5.921875 15.464844 L 5.757812 15.3125 C 5.664062 15.230469 5.542969 15.125 5.484375 15.085938 C 5.382812 15.019531 5.371094 14.917969 5.179688 12.28125 C 5.070312 10.777344 4.980469 9.507812 4.980469 9.457031 C 4.980469 9.410156 5.011719 9.375 5.042969 9.382812 C 5.074219 9.398438 5.734375 10.496094 6.507812 11.835938 Z M 20.019531 9.457031 C 20.019531 9.507812 19.933594 10.777344 19.820312 12.28125 C 19.628906 14.917969 19.621094 15.019531 19.515625 15.085938 C 19.457031 15.125 19.335938 15.230469 19.242188 15.3125 L 19.078125 15.464844 L 18.085938 14.898438 C 17.539062 14.585938 17.09375 14.316406 17.089844 14.296875 C 17.089844 14.273438 19.683594 9.75 19.855469 9.480469 C 19.9375 9.355469 20.019531 9.339844 20.019531 9.457031 Z M 13.117188 11.109375 C 13.800781 11.53125 13.902344 12.425781 13.335938 12.992188 C 12.691406 13.640625 11.617188 13.367188 11.359375 12.496094 C 11.261719 12.175781 11.261719 12.089844 11.351562 11.785156 C 11.445312 11.46875 11.660156 11.21875 11.972656 11.058594 C 12.335938 10.878906 12.773438 10.898438 13.117188 11.109375 Z M 11.109375 13.574219 C 11.246094 13.726562 11.652344 13.96875 11.878906 14.039062 L 12.085938 14.097656 L 12.101562 16.78125 L 12.109375 19.472656 L 11.984375 19.5 C 11.910156 19.519531 11.851562 19.53125 11.847656 19.519531 C 11.753906 19.394531 9.035156 14.636719 9.035156 14.613281 C 9.035156 14.570312 10.882812 13.484375 10.96875 13.480469 C 10.996094 13.476562 11.058594 13.519531 11.109375 13.574219 Z M 15.015625 14.023438 C 15.539062 14.324219 15.96875 14.589844 15.96875 14.613281 C 15.96875 14.636719 13.242188 19.394531 13.15625 19.519531 C 13.148438 19.53125 13.089844 19.519531 13.019531 19.5 L 12.890625 19.472656 L 12.890625 16.792969 C 12.890625 14.6875 12.90625 14.105469 12.953125 14.089844 C 13.273438 14 13.53125 13.867188 13.742188 13.691406 C 13.878906 13.578125 14.003906 13.480469 14.027344 13.480469 C 14.046875 13.476562 14.492188 13.726562 15.015625 14.023438 Z M 9.757812 17.464844 C 10.542969 18.824219 11.167969 19.957031 11.148438 19.976562 C 11.128906 19.996094 10.0625 19.304688 8.789062 18.4375 L 6.476562 16.863281 L 6.410156 16.523438 C 6.378906 16.335938 6.351562 16.167969 6.363281 16.148438 C 6.371094 16.113281 8.238281 15.003906 8.300781 14.996094 C 8.316406 14.988281 8.96875 16.101562 9.757812 17.464844 Z M 17.671875 15.554688 C 18.214844 15.867188 18.652344 16.148438 18.648438 16.175781 C 18.648438 16.210938 18.617188 16.375 18.585938 16.546875 L 18.527344 16.863281 L 16.246094 18.417969 C 14.214844 19.800781 13.769531 20.078125 13.828125 19.925781 C 13.851562 19.867188 16.671875 14.988281 16.679688 14.988281 C 16.683594 14.988281 17.132812 15.242188 17.671875 15.554688 Z M 4.960938 15.710938 C 5.734375 16.109375 5.863281 17.113281 5.226562 17.691406 C 4.570312 18.28125 3.589844 18.023438 3.296875 17.191406 C 3.203125 16.921875 3.203125 16.734375 3.296875 16.414062 C 3.390625 16.113281 3.714844 15.765625 4.015625 15.652344 C 4.28125 15.554688 4.707031 15.582031 4.960938 15.710938 Z M 21.164062 15.761719 C 22.09375 16.269531 21.929688 17.652344 20.902344 17.949219 C 20.121094 18.179688 19.367188 17.613281 19.367188 16.796875 C 19.367188 15.867188 20.332031 15.3125 21.164062 15.761719 Z M 12.886719 20.289062 C 13.183594 20.390625 13.394531 20.570312 13.550781 20.859375 C 13.882812 21.464844 13.632812 22.226562 13.003906 22.539062 C 12.753906 22.660156 12.25 22.664062 12.007812 22.542969 C 11.367188 22.226562 11.117188 21.46875 11.449219 20.859375 C 11.738281 20.332031 12.339844 20.09375 12.886719 20.289062 Z M 12.886719 20.289062 "/>
</g>
</svg>
