<?xml version="1.0" encoding="UTF-8"?>
<svg version="1.1" xmlns="http://www.w3.org/2000/svg" width="512" height="512">
<path d="M0 0 C0.76477661 -0.00100708 1.52955322 -0.00201416 2.31750488 -0.00305176 C13.37853755 0.00682468 23.87336277 0.42253784 34.625 3.25 C35.80835938 3.54003906 36.99171875 3.83007812 38.2109375 4.12890625 C57.20043901 9.13827806 74.86743222 17.57013832 90.625 29.25 C91.44097656 29.84039063 92.25695312 30.43078125 93.09765625 31.0390625 C106.3647483 41.09458802 117.54624119 53.36085407 126.625 67.25 C127.2334375 68.10078125 127.841875 68.9515625 128.46875 69.828125 C142.41558412 89.98763978 150.68506697 117.58560768 150.81787109 141.96411133 C150.82604858 142.8073848 150.83422607 143.65065826 150.84265137 144.51948547 C150.86731902 147.29032714 150.883971 150.06111834 150.8984375 152.83203125 C150.90376118 153.78399572 150.90908485 154.7359602 150.91456985 155.71677208 C150.94121726 160.75331184 150.96062101 165.7898275 150.97509766 170.82641602 C150.98844133 174.97865808 151.01631438 179.13040926 151.05712891 183.2824707 C151.10658762 188.3156449 151.13123388 193.34837384 151.13832474 198.38178062 C151.14501088 200.29104167 151.16016364 202.2002938 151.18421555 204.10941505 C151.40952246 223.07043159 151.40952246 223.07043159 145.625 231.25 C145.068125 232.1575 144.51125 233.065 143.9375 234 C137.92228406 239.85264253 131.02276861 243.3885257 122.64453125 243.34765625 C121.48115234 243.34443359 120.31777344 243.34121094 119.11914062 243.33789062 C117.90419922 243.32951172 116.68925781 243.32113281 115.4375 243.3125 C114.21095703 243.30798828 112.98441406 243.30347656 111.72070312 243.29882812 C108.68875332 243.28703065 105.65690094 243.27056921 102.625 243.25 C102.57166504 243.9497998 102.51833008 244.64959961 102.46337891 245.37060547 C100.38310091 270.59558458 90.65888134 295.11537072 72.625 313.25 C72.9226123 314.11318848 73.22022461 314.97637695 73.52685547 315.86572266 C74.21041491 317.97232581 74.83759622 320.09913999 75.37548828 322.24755859 C77.97063904 332.22165499 81.75289072 343.13332948 91.02905273 348.69012451 C102.72710049 354.38992512 115.55870749 357.55838904 128.09588623 360.84899902 C163.20492915 370.20263315 192.13795667 394.50814057 210.43603516 425.52978516 C222.99680137 447.45372618 230.60564827 471.57351384 231 496.9375 C231.03738281 497.86111328 231.07476562 498.78472656 231.11328125 499.73632812 C231.12488281 500.63158203 231.13648438 501.52683594 231.1484375 502.44921875 C231.16825684 503.25190186 231.18807617 504.05458496 231.20849609 504.8815918 C230.31749047 508.49817991 228.48592768 509.92329165 225.625 512.25 C222.87341841 512.74263455 220.7405614 512.92462388 217.99591064 512.8792057 C217.23187125 512.88647291 216.46783185 512.89374011 215.68063974 512.90122753 C213.11113968 512.91952798 210.54312288 512.90209979 207.97363281 512.88491821 C206.11671305 512.89067743 204.25979898 512.8986172 202.40289688 512.90855443 C197.29298405 512.92947841 192.18353652 512.91908734 187.07362175 512.90362334 C181.56569091 512.89233647 176.05784155 512.9097593 170.54992676 512.92352295 C159.75708173 512.94578835 148.96441029 512.94093943 138.17155838 512.92645974 C129.40215884 512.9151805 120.63280803 512.91363091 111.86340332 512.91907883 C110.61661183 512.91984499 109.36982033 512.92061116 108.08524728 512.92140054 C105.55263359 512.92299912 103.02001991 512.92462019 100.48740625 512.9262635 C77.40142491 512.94012374 54.31552567 512.92573561 31.22956425 512.89955051 C10.14908581 512.87582196 -10.93124163 512.87794507 -32.01171875 512.90185547 C-55.68885512 512.92862126 -79.36592496 512.93915729 -103.04307938 512.92379415 C-105.56652068 512.92220136 -108.08996199 512.92062951 -110.61340332 512.91907883 C-111.85507444 512.91830745 -113.09674556 512.91753607 -114.37604308 512.91674132 C-123.13771955 512.91241918 -131.89934255 512.91972194 -140.66101074 512.93147659 C-151.3345639 512.94548108 -162.00793314 512.9417448 -172.68146515 512.91507287 C-178.13018927 512.90190714 -183.57860645 512.89682931 -189.02732849 512.91331863 C-194.01141186 512.92817402 -198.99490261 512.92010297 -203.9789319 512.89343087 C-205.78571754 512.88782715 -207.59255284 512.89072848 -209.39930677 512.90280981 C-211.84889417 512.9179382 -214.29643167 512.90250406 -216.74591064 512.8792057 C-217.45330179 512.89091153 -218.16069293 512.90261737 -218.88952017 512.91467792 C-222.74516144 512.84099264 -224.2849976 512.32354952 -227.31336594 509.84878194 C-229.45616694 507.14768545 -230.00102984 506.16558815 -229.96875 502.80078125 C-229.9685083 501.96192383 -229.9682666 501.12306641 -229.96801758 500.25878906 C-229.93732178 499.36901367 -229.90662598 498.47923828 -229.875 497.5625 C-229.85655029 496.63276367 -229.83810059 495.70302734 -229.8190918 494.74511719 C-228.63956486 456.5973315 -211.34172962 422.54037101 -185.375 395.25 C-184.41013672 394.18845703 -184.41013672 394.18845703 -183.42578125 393.10546875 C-165.71519717 374.24235208 -141.57966469 365.08926423 -117.5625 357.25 C-115.29051365 356.49499846 -113.01902582 355.73849506 -110.74804688 354.98046875 C-106.61649831 353.60406518 -102.48256841 352.23552919 -98.34448242 350.87890625 C-97.03820389 350.44011642 -97.03820389 350.44011642 -95.70553589 349.99246216 C-93.375 349.25 -93.375 349.25 -89.95629883 348.46826172 C-86.19545845 346.69330726 -84.94498723 343.78850468 -83.21875 340.1953125 C-82.86735962 339.49735565 -82.51596924 338.7993988 -82.15393066 338.08029175 C-81.41842653 336.60732976 -80.69281312 335.12939244 -79.9765625 333.64697266 C-78.87574914 331.3765451 -77.73764598 329.12788044 -76.59375 326.87890625 C-75.88311575 325.44384544 -75.17470405 324.00768143 -74.46875 322.5703125 C-74.12726929 321.89727081 -73.78578857 321.22422913 -73.43395996 320.53079224 C-71.63647938 316.88419881 -71.63647938 316.88419881 -72.03442383 312.97973633 C-74.65866433 309.59369663 -77.35347369 306.27611953 -80.08129883 302.97387695 C-83.44206411 298.77875219 -85.50582596 294.89320926 -87.5625 289.9375 C-89.02194782 286.65802033 -89.02194782 286.65802033 -91.375 284.25 C-95.51854543 283.27426188 -99.18862344 283.24162651 -103.4140625 283.33203125 C-109.04739598 283.21536458 -112.75767693 281.30383348 -117.375 278.25 C-118.2825 277.693125 -119.19 277.13625 -120.125 276.5625 C-124.33156357 272.23908744 -129.27524812 265.50590632 -129.42163086 259.26049805 C-129.38114624 258.14735229 -129.38114624 258.14735229 -129.33984375 257.01171875 C-128.80101037 247.82957643 -128.80101037 247.82957643 -132.453125 239.9453125 C-135.04455869 238.52076948 -135.04455869 238.52076948 -137.796875 237.421875 C-143.49779767 234.83054651 -146.38105441 228.82114737 -148.72537613 223.25982285 C-149.86002334 219.74942245 -149.79201637 216.30758827 -149.76318359 212.64697266 C-149.76844055 211.81494324 -149.77369751 210.98291382 -149.77911377 210.12567139 C-149.79226084 207.38827437 -149.78358642 204.65146499 -149.7734375 201.9140625 C-149.77546166 199.99181 -149.77837594 198.06955824 -149.78213501 196.14730835 C-149.78655285 192.11749972 -149.78015177 188.08789082 -149.76611328 184.05810547 C-149.74913712 178.94019696 -149.75879211 173.82276456 -149.77683067 168.70487404 C-149.78778218 164.73066769 -149.78416875 160.75657009 -149.7764473 156.78236008 C-149.77447047 154.89847124 -149.77681409 153.01457195 -149.78388596 151.13069534 C-149.90526997 109.66213098 -133.94952159 72.23352167 -105.375 42.25 C-102.81578256 39.77298441 -100.1380932 37.49618801 -97.375 35.25 C-96.45203125 34.48945312 -95.5290625 33.72890625 -94.578125 32.9453125 C-67.54022134 11.12902596 -34.65357702 0.03145447 0 0 Z M-34.375 25.25 C-35.10428711 25.45898926 -35.83357422 25.66797852 -36.58496094 25.88330078 C-56.83890483 31.91610201 -74.07658313 42.77590353 -89.375 57.25 C-90.19871094 58.00925781 -91.02242187 58.76851562 -91.87109375 59.55078125 C-106.89244728 73.86910731 -117.33707034 92.48747745 -123.375 112.25 C-123.75527344 113.48621094 -124.13554687 114.72242187 -124.52734375 115.99609375 C-126.87170304 124.14712231 -127.9942857 131.77910693 -128.375 140.25 C-122.105 140.25 -115.835 140.25 -109.375 140.25 C-109.148125 137.465625 -108.92125 134.68125 -108.6875 131.8125 C-106.20953469 106.73419261 -94.81116929 81.79334409 -75.375 65.25 C-57.05222105 50.60557065 -36.03108179 41.20167614 -12.32421875 41.01171875 C-11.35200882 41.003647 -10.37979889 40.99557526 -9.37812805 40.98725891 C-7.31973021 40.97345825 -5.26130987 40.96271822 -3.20288086 40.95483398 C-1.12891783 40.94338631 0.94501745 40.92305101 3.01879883 40.89331055 C32.73424951 40.46802345 58.78828952 48.54111146 80.625 69.25 C100.42156458 88.55087596 108.27900183 113.27102099 110.625 140.25 C116.895 140.25 123.165 140.25 129.625 140.25 C128.34183597 107.31545662 111.56925283 76.75939533 88.0625 54.34765625 C71.77147799 39.36907036 52.77733519 30.24644306 31.625 24.25 C30.35914063 23.88777344 29.09328125 23.52554687 27.7890625 23.15234375 C7.9171046 18.51842732 -14.82478359 19.61300654 -34.375 25.25 Z M-68.6875 87.5 C-79.37784896 99.82166844 -86.20628023 115.09789304 -88.375 131.25 C-87.65183594 130.51394531 -86.92867187 129.77789062 -86.18359375 129.01953125 C-68.71167943 111.79061991 -45.64169843 100.61609037 -20.82641602 100.48779297 C-12.93189795 100.83940816 -9.56118052 104.58043141 -4.375 110.25 C-2.17324482 112.19455045 0.11865507 114.01007082 2.4375 115.8125 C3.333479 116.51173584 3.333479 116.51173584 4.24755859 117.22509766 C10.09446035 121.71944031 16.19431341 125.63599885 22.625 129.25 C23.19847168 129.57564941 23.77194336 129.90129883 24.36279297 130.23681641 C42.98970871 140.66077389 67.94406841 150.32731337 89.625 149.25 C90.56532376 123.52169721 83.69262964 102.32338535 66 83.125 C46.77486974 64.76518872 21.98885084 59.74152712 -3.71875 60.1015625 C-28.99715494 60.74405529 -50.95912541 69.0363472 -68.6875 87.5 Z M-78.87329102 153.04663086 C-79.89975158 154.44310026 -80.91599116 155.8471484 -81.92114258 157.2590332 C-83.375 159.25 -83.375 159.25 -84.8659668 161.01245117 C-88.76324287 165.77076132 -88.9676647 169.29880276 -88.4375 175.3125 C-88.3432373 176.70190796 -88.3432373 176.70190796 -88.24707031 178.11938477 C-87.99693385 181.50078953 -87.69002637 184.87401922 -87.375 188.25 C-87.24773566 189.66372362 -87.12062705 191.07746127 -86.99365234 192.49121094 C-85.43062754 209.65003698 -83.49407196 226.73762974 -80.75 243.75 C-80.54407227 245.03060303 -80.33814453 246.31120605 -80.12597656 247.63061523 C-79.21930573 253.02986206 -78.20553189 258.07713449 -76.375 263.25 C-71.85582581 263.57077927 -67.33957468 263.7651892 -62.8125 263.9375 C-60.89727539 264.07575195 -60.89727539 264.07575195 -58.94335938 264.21679688 C-55.13461253 264.32561821 -52.04880348 264.28110967 -48.375 263.25 C-45.85868252 260.65654891 -44.40615303 258.23154791 -42.8503418 254.97998047 C-39.76777671 249.27598529 -33.36092983 246.24309766 -27.375 244.25 C-24.66981556 244.02680583 -22.0690373 243.89877559 -19.36328125 243.87890625 C-18.59501511 243.86987778 -17.82674896 243.8608493 -17.03520203 243.85154724 C-15.41226065 243.837079 -13.7892614 243.82816654 -12.16625977 243.82446289 C-9.71202204 243.81261835 -7.26034456 243.76344941 -4.80664062 243.71289062 C5.68584814 243.6050442 13.0797349 244.69055981 21.4375 251.5625 C28.64966838 260.42316401 30.47446874 267.99823311 29.85595703 279.27636719 C29.05215059 286.14525858 24.87336506 291.97807495 19.625 296.25 C10.98122177 302.21064079 3.91960494 302.55493871 -6.32299805 302.6550293 C-7.96676829 302.67646908 -9.61042881 302.71040285 -11.25366211 302.75756836 C-21.80129804 303.0570415 -30.47404935 302.7477689 -39.375 296.25 C-42.50015979 292.97899186 -44.79601899 289.75794308 -46.421875 285.5234375 C-48.10837371 283.08624573 -48.10837371 283.08624573 -50.39428711 282.8527832 C-52.96761176 282.75634493 -55.49037428 282.81519702 -58.0625 282.9375 C-58.95517578 282.96005859 -59.84785156 282.98261719 -60.76757812 283.00585938 C-62.97174272 283.06479426 -65.17252672 283.14699182 -67.375 283.25 C-55.66330446 301.97588516 -38.88129988 315.82483317 -17.25 321.4375 C4.30098511 325.64904815 24.97374452 321.88691156 43.625 310.25 C65.39731519 294.73542308 77.25360759 272.23184737 81.625 246.25 C85.65469111 221.33091011 89.625 195.53899972 89.625 170.25 C88.85236816 170.14042969 88.07973633 170.03085938 87.28369141 169.91796875 C48.52097625 164.28641527 7.41399974 152.33772635 -20.546875 122.96875 C-22.36826756 120.9299701 -22.36826756 120.9299701 -25.6875 120.75 C-48.02132134 122.07594116 -65.93100271 135.73250024 -78.87329102 153.04663086 Z M-129.375 160.25 C-129.44930106 167.66981835 -129.50367448 175.08941884 -129.53979492 182.50952148 C-129.55485705 185.03234633 -129.57531077 187.5551451 -129.60131836 190.07788086 C-129.63781383 193.70953824 -129.6547526 197.34084858 -129.66796875 200.97265625 C-129.68345261 202.09583755 -129.69893646 203.21901886 -129.71488953 204.37623596 C-129.71618425 210.4362132 -129.44278206 214.95555079 -126.375 220.25 C-121.64282647 223.58403135 -117.25812797 223.39037961 -111.609375 223.31640625 C-110.56499268 223.3092157 -110.56499268 223.3092157 -109.49951172 223.30187988 C-107.791299 223.28942722 -106.08313662 223.270373 -104.375 223.25 C-104.49560791 222.03944946 -104.49560791 222.03944946 -104.61865234 220.80444336 C-106.61116437 200.6362992 -108.18738354 180.48139568 -109.375 160.25 C-115.975 160.25 -122.575 160.25 -129.375 160.25 Z M110.625 160.25 C110.43164062 163.03824219 110.23828125 165.82648438 110.0390625 168.69921875 C107.38247266 206.75043312 107.38247266 206.75043312 105.625 223.25 C117.17615591 224.12515737 117.17615591 224.12515737 127.625 220.25 C131.25556696 213.98428359 131.01591912 208.07786451 130.91796875 200.97265625 C130.91160149 199.22292763 130.91160149 199.22292763 130.90510559 197.43785095 C130.88837522 193.72916126 130.85073221 190.02102418 130.8125 186.3125 C130.79744593 183.7910235 130.78375879 181.26953844 130.77148438 178.74804688 C130.73848997 172.58181983 130.68674553 166.41600347 130.625 160.25 C124.025 160.25 117.425 160.25 110.625 160.25 Z M-109.375 243.25 C-109.7216366 249.63068104 -109.85771442 254.74506431 -106.375 260.25 C-104.0578245 261.69179809 -102.00671145 262.40586614 -99.375 263.25 C-98.06447233 258.94577494 -98.91714448 255.3129466 -99.8125 251 C-99.96009766 250.25492188 -100.10769531 249.50984375 -100.25976562 248.7421875 C-100.6238694 246.90992335 -100.99841409 245.07973947 -101.375 243.25 C-104.015 243.25 -106.655 243.25 -109.375 243.25 Z M-26.375 266.25 C-28.82621397 269.92682095 -29.19918762 272.97920963 -28.375 277.25 C-25.67599869 280.77369615 -23.69230367 282.4649449 -19.375 283.25 C-16.10716689 283.49165489 -12.83841298 283.48099543 -9.5625 283.5 C-8.68529297 283.520625 -7.80808594 283.54125 -6.90429688 283.5625 C-1.28313152 283.5961345 2.68809537 283.0120852 7.625 280.25 C10.07621397 276.57317905 10.44918762 273.52079037 9.625 269.25 C6.92599869 265.72630385 4.94230367 264.0350551 0.625 263.25 C-2.64283311 263.00834511 -5.91158702 263.01900457 -9.1875 263 C-10.06470703 262.979375 -10.94191406 262.95875 -11.84570312 262.9375 C-17.46686848 262.9038655 -21.43809537 263.4879148 -26.375 266.25 Z M52.0546875 334.6875 C51.3225 335.41839844 50.5903125 336.14929688 49.8359375 336.90234375 C48.67964844 338.06443359 48.67964844 338.06443359 47.5 339.25 C46.75234375 339.99378906 46.0046875 340.73757813 45.234375 341.50390625 C41.04887977 345.69669328 37.04949651 349.98393119 33.18408203 354.47265625 C31.10365707 356.84432768 28.88471891 359.04974738 26.625 361.25 C22.4076663 365.41574552 18.46231262 369.73543087 14.625 374.25 C18.52476721 378.91874537 22.57714644 383.34127809 26.8984375 387.62109375 C27.46704498 388.18828629 28.03565247 388.75547882 28.62149048 389.33985901 C30.41196236 391.12479913 32.20590484 392.90620256 34 394.6875 C35.22549323 395.90796939 36.45075572 397.12867053 37.67578125 398.34960938 C40.65619774 401.31908756 43.63972894 404.28540257 46.625 407.25 C49.42134142 404.80448164 50.74851532 402.25815679 52.296875 398.90234375 C52.79356689 397.83024658 53.29025879 396.75814941 53.80200195 395.65356445 C54.32109131 394.50976318 54.84018066 393.36596191 55.375 392.1875 C56.17200317 390.43796021 56.17200317 390.43796021 56.98510742 388.65307617 C60.06736155 381.83160183 63.11793726 374.99728168 65.9375 368.0625 C66.23301758 367.36439209 66.52853516 366.66628418 66.83300781 365.94702148 C69.07875238 360.21952964 68.92826282 356.275098 66.50073242 350.64038086 C65.07859385 347.66498813 63.58655232 344.73692998 62.0625 341.8125 C61.54236328 340.79478516 61.02222656 339.77707031 60.48632812 338.72851562 C59.20819669 336.23088263 57.92094187 333.73842486 56.625 331.25 C54.69846672 331.25 53.32777926 333.41657599 52.0546875 334.6875 Z M-57.375 335.25 C-59.09244257 338.42221746 -60.76821595 341.6147149 -62.4375 344.8125 C-62.92283203 345.70775391 -63.40816406 346.60300781 -63.90820312 347.52539062 C-66.68197687 352.89588872 -68.20769382 356.22641493 -66.375 362.25 C-64.99598556 366.21989005 -63.46624802 370.11071032 -61.875 374 C-61.4330127 375.09368896 -60.99102539 376.18737793 -60.53564453 377.31420898 C-56.51698713 387.14053449 -52.07163691 396.7319363 -47.375 406.25 C-44.45439894 406.55371555 -44.45439894 406.55371555 -42.86035156 405.09179688 C-42.3340918 404.55619141 -41.80783203 404.02058594 -41.265625 403.46875 C-40.6792627 402.87787598 -40.09290039 402.28700195 -39.48876953 401.67822266 C-38.87372559 401.04190918 -38.25868164 400.4055957 -37.625 399.75 C-36.99319824 399.10724121 -36.36139648 398.46448242 -35.71044922 397.80224609 C-31.99750315 394.0010564 -28.40604369 390.12715392 -24.97265625 386.0703125 C-21.95065288 382.62714974 -18.65104329 379.44946046 -15.375 376.25 C-19.80006021 370.95952371 -24.45623943 366.008466 -29.328125 361.12890625 C-30.0695575 360.38414536 -30.81098999 359.63938446 -31.57489014 358.87205505 C-33.12999778 357.31191619 -34.68643455 355.75310113 -36.24414062 354.19555664 C-38.63700114 351.80048778 -41.02172692 349.39750692 -43.40625 346.99414062 C-44.92138604 345.47607432 -46.43699413 343.95847899 -47.953125 342.44140625 C-48.6676886 341.71965714 -49.3822522 340.99790802 -50.11846924 340.25428772 C-50.77965759 339.59617599 -51.44084595 338.93806427 -52.12207031 338.26000977 C-52.70353821 337.67711685 -53.2850061 337.09422394 -53.88409424 336.4936676 C-55.30738145 335.03647896 -55.30738145 335.03647896 -57.375 335.25 Z M-17.375 342.25 C-12.39095832 348.28331362 -6.95584697 353.7684171 -1.375 359.25 C2.40633733 357.71679261 4.51943552 355.41776728 7.1875 352.375 C7.95191406 351.51132812 8.71632813 350.64765625 9.50390625 349.7578125 C11.29681576 347.63801893 12.99179007 345.49370693 14.625 343.25 C13.48804688 343.26160156 12.35109375 343.27320313 11.1796875 343.28515625 C1.60177381 343.35177073 -7.82848194 343.10949359 -17.375 342.25 Z M-93.43066406 371.40820312 C-94.61405365 371.78990662 -94.61405365 371.78990662 -95.8213501 372.17932129 C-96.66921082 372.46045776 -97.51707153 372.74159424 -98.390625 373.03125 C-99.72356598 373.46890686 -99.72356598 373.46890686 -101.08343506 373.91540527 C-102.97073799 374.53775267 -104.85696507 375.16337067 -106.7421875 375.79199219 C-109.5687691 376.73131351 -112.40112376 377.65133983 -115.234375 378.5703125 C-136.11027009 385.44293129 -154.12186292 394.52377081 -169.99316406 409.91943359 C-171.0984575 410.98371791 -172.22890133 412.02185983 -173.3671875 413.05078125 C-193.39425447 431.59258727 -205.13064848 460.6209565 -208.375 487.25 C-208.375 488.9 -208.375 490.55 -208.375 492.25 C-145.675 492.25 -82.975 492.25 -18.375 492.25 C-23.43022057 482.9388455 -23.43022057 482.9388455 -29.0625 474.0625 C-29.69696045 473.1202356 -29.69696045 473.1202356 -30.34423828 472.15893555 C-32.54725729 468.89722333 -34.7826245 465.65971046 -37.04296875 462.4375 C-57.02256516 433.90246365 -72.91844641 402.7585667 -85.375 370.25 C-88.70653376 370.25 -90.40562354 370.42217097 -93.43066406 371.40820312 Z M86.625 370.25 C86.3347998 370.98186523 86.04459961 371.71373047 85.74560547 372.46777344 C72.831097 404.83705566 57.94994458 437.04437677 36.609375 464.83569336 C32.52311024 470.20520241 28.97925657 475.88572265 25.4375 481.625 C24.5707666 483.02866821 24.5707666 483.02866821 23.68652344 484.46069336 C20.99699978 488.12596442 20.99699978 488.12596442 19.625 492.25 C82.325 492.25 145.025 492.25 209.625 492.25 C208.7291063 481.45117399 208.7291063 481.45117399 206.5 471.0625 C206.28190674 470.2578833 206.06381348 469.4532666 205.83911133 468.62426758 C196.80130324 436.56627957 176.46919785 407.78166492 147.16357422 391.30371094 C137.19989463 386.1072925 126.9351277 382.26538747 116.28540039 378.7199707 C113.52984438 377.80161675 110.78136669 376.86404696 108.03320312 375.92382812 C106.26079453 375.32440239 104.48802094 374.72605454 102.71484375 374.12890625 C101.49908913 373.71494347 101.49908913 373.71494347 100.2587738 373.2926178 C95.70114873 371.78427692 91.39993524 370.77127072 86.625 370.25 Z M-3.94921875 393.59375 C-4.9928162 394.64004365 -6.03022014 395.69253874 -7.0625 396.75 C-7.87932251 397.57649048 -7.87932251 397.57649048 -8.71264648 398.41967773 C-12.12198947 401.8940283 -15.36874236 405.46485211 -18.51953125 409.17578125 C-21.81589372 412.8607675 -25.38787156 416.27934371 -28.921875 419.734375 C-33.00227135 423.46558814 -33.00227135 423.46558814 -34.3984375 428.48046875 C-32.87767324 432.59581935 -30.48430159 435.96621427 -28 439.5625 C-27.46197754 440.35575684 -26.92395508 441.14901367 -26.36962891 441.96630859 C-23.7629165 445.80114686 -21.12492516 449.61419654 -18.484375 453.42578125 C-17.57279991 454.74210665 -16.66133937 456.05851139 -15.75 457.375 C-15.3063208 458.01477783 -14.8626416 458.65455566 -14.40551758 459.3137207 C-9.47766316 466.46786924 -4.91428078 473.84535977 -0.375 481.25 C3.13673699 480.079421 3.33949905 479.51219011 5.0859375 476.41015625 C5.5509668 475.60328369 6.01599609 474.79641113 6.49511719 473.96508789 C6.99172852 473.08973389 7.48833984 472.21437988 8 471.3125 C12.13346749 464.20770432 16.48652134 457.4209724 21.375 450.8125 C25.22417453 445.58510588 29.02278133 440.35957949 32.5 434.875 C33.45519531 433.37839844 33.45519531 433.37839844 34.4296875 431.8515625 C35.81586311 429.42833857 35.81586311 429.42833857 35.39988708 427.31085205 C34.46619337 424.82764561 33.29706427 423.5477689 31.42211914 421.67480469 C30.74794449 420.99440125 30.07376984 420.3139978 29.37916565 419.61297607 C28.64689255 418.88991272 27.91461945 418.16684937 27.16015625 417.421875 C26.41164902 416.67286926 25.66314178 415.92386353 24.89195251 415.15216064 C23.30924568 413.57179346 21.72284674 411.9951165 20.13305664 410.421875 C17.69174978 408.00420863 15.26407994 405.57345198 12.83789062 403.140625 C11.30027077 401.60858011 9.76188519 400.07730326 8.22265625 398.546875 C7.49240738 397.81571472 6.76215851 397.08455444 6.00978088 396.33123779 C5.33245407 395.66344299 4.65512726 394.99564819 3.95727539 394.30761719 C3.36072647 393.71567566 2.76417755 393.12373413 2.14955139 392.51385498 C-0.64907091 390.19379365 -1.31530035 391.19564523 -3.94921875 393.59375 Z " fill="#000000" transform="translate(255.375,-0.24999999999999997)"/>
<path d="M0 0 C3.0625 1.625 3.0625 1.625 6 4 C6.53109375 4.40089844 7.0621875 4.80179687 7.609375 5.21484375 C17.84615503 13.31504813 30.67934072 28.26013781 32.5 41.6875 C31.9104516 45.59325817 30.76717522 47.23282478 28 50 C24.50587352 51.74706324 20.81315769 51.55234221 17 51 C12.32914594 47.77488648 9.84202298 42.6292786 6.9140625 37.86328125 C4.44024418 34.16265099 1.5692568 30.99392601 -1.49609375 27.77734375 C-3 26 -3 26 -3 24 C-3.58265625 23.74476563 -4.1653125 23.48953125 -4.765625 23.2265625 C-8.76121789 21.03317759 -11.54523867 17.80588337 -14 14 C-14.87204265 10.85256129 -14.6044322 9.35185127 -14 6 C-10.30048482 0.20409288 -6.73715777 -0.89744503 0 0 Z " fill="#000000" transform="translate(405,415)"/>
<path d="M0 0 C3.125 1.875 3.125 1.875 5 5 C5.98876625 10.02622846 5.7769173 13.70513784 3.125 18.125 C-1.29486216 20.7769173 -4.97377154 20.98876625 -10 20 C-13.125 18.125 -13.125 18.125 -15 15 C-15.98876625 9.97377154 -15.7769173 6.29486216 -13.125 1.875 C-8.70513784 -0.7769173 -5.02622846 -0.98876625 0 0 Z " fill="#000000" transform="translate(371,396)"/>
</svg>
