<?xml version="1.0" encoding="UTF-8"?>
<svg version="1.1" xmlns="http://www.w3.org/2000/svg" width="512" height="512">
<path d="M0 0 C1.22796043 -0.01052147 1.22796043 -0.01052147 2.48072815 -0.02125549 C5.10700041 -0.03865565 7.73304722 -0.04510732 10.359375 -0.046875 C11.25643158 -0.04754974 12.15348816 -0.04822449 13.07772827 -0.04891968 C33.28240796 -0.02474951 51.7314451 2.41030121 71.109375 8.203125 C72.24890625 8.533125 73.3884375 8.863125 74.5625 9.203125 C80.42742973 11.08492063 84.13449799 12.66369885 87.109375 18.203125 C87.92417179 22.40720256 88.14755338 26.30615935 86.046875 30.14453125 C84.29869976 32.30373579 82.60479979 33.9554126 80.109375 35.203125 C72.96229074 35.89389254 66.92344745 34.58316256 60.171875 32.390625 C28.15345274 22.68695212 -5.73954007 23.21890267 -37.890625 32.203125 C-38.66809082 32.41952637 -39.44555664 32.63592773 -40.24658203 32.85888672 C-69.39131119 41.22977885 -94.10642356 57.48392896 -115.890625 78.203125 C-116.52355469 78.78320312 -117.15648438 79.36328125 -117.80859375 79.9609375 C-145.96468129 106.57880648 -165.85703246 150.4953021 -167.06762695 189.23461914 C-167.09372898 190.65241338 -167.11391771 192.07032597 -167.12890625 193.48828125 C-167.1387001 194.25834 -167.14849396 195.02839874 -167.15858459 195.8217926 C-167.33171571 212.96974577 -167.146223 229.47748349 -162.890625 246.203125 C-162.68163574 247.04891113 -162.47264648 247.89469727 -162.25732422 248.76611328 C-150.54325892 294.87653511 -120.17527759 333.79092286 -79.80859375 358.34765625 C-39.42447959 382.19830182 9.54432775 389.29363714 55.01171875 377.60546875 C56.71274313 377.14463474 58.41205474 376.67742012 60.109375 376.203125 C60.88684082 375.98672363 61.66430664 375.77032227 62.46533203 375.54736328 C107.60820555 362.5815154 145.22080206 330.82301408 168.0390625 290.16259766 C178.31050031 271.35818162 184.71025336 251.32976609 188.109375 230.203125 C188.2844458 229.12264893 188.4595166 228.04217285 188.63989258 226.92895508 C189.13112188 223.03054094 189.30503802 219.19213679 189.34765625 215.26953125 C189.35740479 214.52289719 189.36715332 213.77626312 189.37719727 213.00700378 C189.60048789 191.44452616 188.20677466 171.45098819 181.70678711 150.74975586 C180.1096474 145.56533341 178.78111258 140.57843699 180.109375 135.203125 C181.84496298 132.10203766 183.87838412 129.81862044 187.109375 128.203125 C189.28125 127.9296875 189.28125 127.9296875 191.859375 127.828125 C192.69984375 127.77914062 193.5403125 127.73015625 194.40625 127.6796875 C198.23513068 128.42111815 200.63713143 130.2968234 203.109375 133.203125 C204.40265306 135.89232223 205.32912465 138.19651042 206.171875 141.015625 C206.41446045 141.78318115 206.6570459 142.5507373 206.90698242 143.34155273 C211.78708863 159.43524937 215.2151804 176.24632444 215.3125 193.09375 C215.31955963 193.91225433 215.32661926 194.73075867 215.33389282 195.57406616 C215.66604375 245.38903593 203.50455658 293.15011017 171.109375 332.203125 C170.63209961 332.78191406 170.15482422 333.36070312 169.66308594 333.95703125 C151.58361197 355.7701816 130.26206083 373.13545678 105.109375 386.203125 C104.08827637 386.74283936 103.06717773 387.28255371 102.01513672 387.83862305 C93.75539379 392.10609907 85.46136929 395.48898941 76.609375 398.390625 C75.96683777 398.60379364 75.32430054 398.81696228 74.66229248 399.03659058 C62.99927285 402.88616111 51.29325724 405.60279233 39.109375 407.203125 C37.87421143 407.37602051 36.63904785 407.54891602 35.36645508 407.72705078 C31.05886326 408.25954011 26.794092 408.39783414 22.45703125 408.44140625 C21.64800354 408.4512001 20.83897583 408.46099396 20.00543213 408.47108459 C-29.8154832 408.94959359 -77.90977166 396.53844731 -116.890625 364.203125 C-117.46941406 363.72584961 -118.04820313 363.24857422 -118.64453125 362.75683594 C-139.89808751 345.14117241 -156.99694723 324.47156942 -169.90869141 300.04394531 C-170.80648076 298.36086931 -171.74314457 296.69867869 -172.68359375 295.0390625 C-181.86178662 278.11086239 -187.79373602 258.18380974 -190.890625 239.203125 C-191.06505127 238.16043457 -191.23947754 237.11774414 -191.41918945 236.04345703 C-193.01123861 225.52928433 -193.2486473 215.19355112 -193.203125 204.578125 C-193.20130219 203.69605377 -193.19947937 202.81398254 -193.19760132 201.90518188 C-193.15205069 188.81197163 -192.77082057 176.02772262 -189.890625 163.203125 C-189.71901855 162.42388672 -189.54741211 161.64464844 -189.37060547 160.84179688 C-185.36754052 143.22688016 -179.53521245 126.04422808 -170.93652344 110.13867188 C-169.87500643 108.17422117 -168.84015014 106.19703371 -167.8046875 104.21875 C-149.31904619 69.54182944 -119.28856373 41.45096405 -84.73144531 23.18505859 C-83.04836931 22.28726924 -81.38617869 21.35060543 -79.7265625 20.41015625 C-56.13877186 7.62124247 -26.86027884 0.15497851 0 0 Z " fill="#000000" transform="translate(244.890625,51.796875)"/>
<path d="M0 0 C1.58554687 0.56074219 1.58554687 0.56074219 3.203125 1.1328125 C15.07447583 5.72915603 24.90845086 12.12732148 34 21 C34.886875 21.845625 35.77375 22.69125 36.6875 23.5625 C37.450625 24.366875 38.21375 25.17125 39 26 C39.51820313 26.52335937 40.03640625 27.04671875 40.5703125 27.5859375 C48.30292677 35.80400738 53.39352923 45.78570225 57.375 56.25 C57.61355713 56.87455078 57.85211426 57.49910156 58.09790039 58.14257812 C64.75505557 76.60072578 64.61715122 99.57577503 58 118 C57.62617188 119.05703125 57.25234375 120.1140625 56.8671875 121.203125 C52.27321721 133.06834628 45.87928328 142.92080791 37 152 C36.20142578 152.82177734 36.20142578 152.82177734 35.38671875 153.66015625 C34.27219244 154.78783331 33.13823429 155.89625766 32 157 C31.34 157.66 30.68 158.32 30 159 C31.02738281 159.42410156 32.05476562 159.84820312 33.11328125 160.28515625 C56.889538 170.27227778 77.26279014 186.31173983 87.40234375 210.8046875 C88.46366496 214.70313536 88.30242589 218.1815241 87 222 C84.31692897 225.30224127 82.12850386 227.77019693 77.79296875 228.23828125 C76.93316406 228.26277344 76.07335937 228.28726563 75.1875 228.3125 C74.33542969 228.34988281 73.48335937 228.38726562 72.60546875 228.42578125 C69.03868991 227.84290435 67.55719567 226.53650639 65 224 C63.04296875 220.8984375 63.04296875 220.8984375 61.1875 217.375 C52.2220362 201.02971394 39.64695483 189.8644996 21.7890625 183.93359375 C10.68346007 180.97876123 -0.45468646 180.83816628 -11.88671875 180.83203125 C-13.31622855 180.8288074 -14.74573804 180.82544254 -16.17524719 180.82194519 C-19.15972659 180.81599171 -22.1441772 180.81410131 -25.12866211 180.81469727 C-28.90923829 180.81479853 -32.68962515 180.8011665 -36.47015667 180.78392506 C-39.42085071 180.77267698 -42.37150087 180.77078195 -45.32221413 180.77130699 C-46.71373965 180.77014527 -48.10526702 180.76582844 -49.49677086 180.75797462 C-72.57647972 180.63991889 -92.48585299 184.66391454 -109.94140625 200.84375 C-115.06317472 206.20848661 -118.70278559 212.33534854 -122.125 218.875 C-126.03211903 226.10623863 -126.03211903 226.10623863 -130 228 C-134.60570999 228.6405292 -138.57851776 228.54439745 -142.9375 226.875 C-146.08532091 224.01334463 -147.75056271 221.37445111 -148.203125 217.06640625 C-147.77854616 205.49663273 -139.21239212 195.38617358 -132 187 C-131.2265625 186.02675781 -130.453125 185.05351562 -129.65625 184.05078125 C-126.95817349 180.81831548 -123.93751357 178.21028466 -120.625 175.625 C-120.02284668 175.15384766 -119.42069336 174.68269531 -118.80029297 174.19726562 C-110.12780351 167.60626307 -100.36399588 162.38416192 -90 159 C-90.804375 158.401875 -91.60875 157.80375 -92.4375 157.1875 C-108.66136125 143.60384258 -118.4433292 122.49799931 -122 102 C-122.91679062 87.06200331 -123.10017303 72.20048177 -118 58 C-117.62617188 56.94296875 -117.25234375 55.8859375 -116.8671875 54.796875 C-112.27084397 42.92552417 -105.87267852 33.09154914 -97 24 C-96.154375 23.113125 -95.30875 22.22625 -94.4375 21.3125 C-93.633125 20.549375 -92.82875 19.78625 -92 19 C-91.47664063 18.48179687 -90.95328125 17.96359375 -90.4140625 17.4296875 C-82.19599262 9.69707323 -72.21429775 4.60647077 -61.75 0.625 C-61.12544922 0.38644287 -60.50089844 0.14788574 -59.85742188 -0.09790039 C-41.39927422 -6.75505557 -18.42422497 -6.61715122 0 0 Z M-78.71875 40.625 C-92.30773821 54.77243978 -97.51747789 71.74123755 -97.34936523 90.92529297 C-96.87478379 109.74445822 -88.99202994 125.41571151 -75.47265625 138.43359375 C-61.4818895 150.61644938 -43.96888413 156.8939073 -25.40234375 155.78515625 C-6.75136335 153.75997224 9.95029733 145.97096935 22.125 131.46875 C35.63179182 113.66434261 39.21136549 95.32843471 36.56640625 73.40625 C32.79193485 55.96397224 21.54541386 40.98584112 7 31 C-21.57749528 14.07738183 -54.45369339 17.89570647 -78.71875 40.625 Z " fill="#000000" transform="translate(286,136)"/>
<path d="M0 0 C3.12578143 1.6720747 5.39281175 3.7856235 7 7 C7.08649451 9.48099734 7.11565054 11.93344928 7.09765625 14.4140625 C7.0962413 15.14370209 7.09482635 15.87334167 7.09336853 16.62509155 C7.08776531 18.95843585 7.07521235 21.29168464 7.0625 23.625 C7.05748541 25.20572778 7.05292243 26.78645707 7.04882812 28.3671875 C7.03779484 32.24482854 7.02052811 36.12239807 7 40 C7.96824707 39.97381592 8.93649414 39.94763184 9.93408203 39.9206543 C13.54566096 39.82977075 17.15714003 39.7726145 20.76953125 39.7253418 C22.32927479 39.70028373 23.8889019 39.66622699 25.44824219 39.62280273 C27.69755843 39.56175807 29.9453156 39.53370574 32.1953125 39.51171875 C32.8861795 39.48591232 33.57704651 39.4601059 34.28884888 39.43351746 C38.13483987 39.43131753 40.48776239 40.02667152 43.42529297 42.40551758 C46.68772747 45.69300966 47.19751727 47.24466913 47.375 51.75 C47.3533442 55.49103938 47.02882688 57.6566975 44.625 60.5625 C40.59648845 64.30326073 37.85265514 64.13586084 32.5859375 64.09765625 C31.85629791 64.0962413 31.12665833 64.09482635 30.37490845 64.09336853 C28.04156415 64.08776531 25.70831536 64.07521235 23.375 64.0625 C21.79427222 64.05748541 20.21354293 64.05292243 18.6328125 64.04882812 C14.75517146 64.03779484 10.87760193 64.02052811 7 64 C7.02618408 64.96824707 7.05236816 65.93649414 7.0793457 66.93408203 C7.17022925 70.54566096 7.2273855 74.15714003 7.2746582 77.76953125 C7.29971627 79.32927479 7.33377301 80.8889019 7.37719727 82.44824219 C7.43824193 84.69755843 7.46629426 86.9453156 7.48828125 89.1953125 C7.51408768 89.8861795 7.5398941 90.57704651 7.56648254 91.28884888 C7.56868247 95.13483987 6.97332848 97.48776239 4.59448242 100.42529297 C1.30699034 103.68772747 -0.24466913 104.19751727 -4.75 104.375 C-8.49103938 104.3533442 -10.6566975 104.02882688 -13.5625 101.625 C-17.30326073 97.59648845 -17.13586084 94.85265514 -17.09765625 89.5859375 C-17.0962413 88.85629791 -17.09482635 88.12665833 -17.09336853 87.37490845 C-17.08776531 85.04156415 -17.07521235 82.70831536 -17.0625 80.375 C-17.05748541 78.79427222 -17.05292243 77.21354293 -17.04882812 75.6328125 C-17.03779484 71.75517146 -17.02052811 67.87760193 -17 64 C-17.96824707 64.02618408 -18.93649414 64.05236816 -19.93408203 64.0793457 C-23.54566096 64.17022925 -27.15714003 64.2273855 -30.76953125 64.2746582 C-32.32927479 64.29971627 -33.8889019 64.33377301 -35.44824219 64.37719727 C-37.69755843 64.43824193 -39.9453156 64.46629426 -42.1953125 64.48828125 C-42.8861795 64.51408768 -43.57704651 64.5398941 -44.28884888 64.56648254 C-48.13483987 64.56868247 -50.48776239 63.97332848 -53.42529297 61.59448242 C-56.68772747 58.30699034 -57.19751727 56.75533087 -57.375 52.25 C-57.3533442 48.50896062 -57.02882688 46.3433025 -54.625 43.4375 C-50.59648845 39.69673927 -47.85265514 39.86413916 -42.5859375 39.90234375 C-41.49147812 39.90446617 -41.49147812 39.90446617 -40.37490845 39.90663147 C-38.04156415 39.91223469 -35.70831536 39.92478765 -33.375 39.9375 C-31.79427222 39.94251459 -30.21354293 39.94707757 -28.6328125 39.95117188 C-24.75517146 39.96220516 -20.87760193 39.97947189 -17 40 C-17.02618408 39.03175293 -17.05236816 38.06350586 -17.0793457 37.06591797 C-17.17022925 33.45433904 -17.2273855 29.84285997 -17.2746582 26.23046875 C-17.29971627 24.67072521 -17.33377301 23.1110981 -17.37719727 21.55175781 C-17.43824193 19.30244157 -17.46629426 17.0546844 -17.48828125 14.8046875 C-17.51408768 14.1138205 -17.5398941 13.42295349 -17.56648254 12.71115112 C-17.56868247 8.86516013 -16.97332848 6.51223761 -14.59448242 3.57470703 C-10.20542191 -0.78089964 -5.99282365 -0.84431819 0 0 Z " fill="#000000" transform="translate(397,68)"/>
</svg>
