<?xml version="1.0" encoding="UTF-8"?>
<svg xmlns="http://www.w3.org/2000/svg" xmlns:xlink="http://www.w3.org/1999/xlink" width="25px" height="25px" viewBox="0 0 25 25" version="1.1">
<g id="surface1">
<path style=" stroke:none;fill-rule:nonzero;fill:rgb(0%,0%,0%);fill-opacity:1;" d="M 22.8125 14.199219 C 23.730469 15.0625 23.929688 16.375 23.980469 17.570312 C 23.992188 17.910156 23.992188 18.246094 23.988281 18.585938 C 23.988281 18.636719 23.988281 18.6875 23.988281 18.742188 C 23.984375 20.183594 23.976562 21.78125 22.914062 22.890625 C 21.757812 23.996094 20.117188 23.988281 18.613281 23.988281 C 18.539062 23.988281 18.539062 23.988281 18.464844 23.992188 C 17.035156 23.992188 15.414062 23.949219 14.296875 22.917969 C 13.238281 21.78125 13.222656 20.089844 13.222656 18.628906 C 13.222656 18.589844 13.222656 18.550781 13.222656 18.511719 C 13.226562 17.035156 13.269531 15.410156 14.339844 14.265625 C 16.078125 12.636719 21.011719 12.703125 22.8125 14.199219 Z M 22.8125 14.199219 "/>
<path style=" stroke:none;fill-rule:nonzero;fill:rgb(0%,0%,0%);fill-opacity:1;" d="M 6.34375 13.222656 C 6.382812 13.222656 6.417969 13.222656 6.457031 13.222656 C 7.941406 13.226562 9.582031 13.261719 10.734375 14.339844 C 11.964844 15.652344 11.816406 17.8125 11.765625 19.484375 C 11.71875 20.71875 11.554688 22.113281 10.605469 23.007812 C 9.429688 23.980469 7.835938 23.996094 6.386719 23.988281 C 6.3125 23.988281 6.3125 23.988281 6.234375 23.988281 C 4.800781 23.984375 3.210938 23.972656 2.109375 22.914062 C 1.046875 21.804688 1.015625 20.234375 1.015625 18.78125 C 1.015625 18.625 1.015625 18.472656 1.015625 18.320312 C 1.011719 16.929688 1.082031 15.375 2.082031 14.296875 C 3.210938 13.242188 4.890625 13.222656 6.34375 13.222656 Z M 6.34375 13.222656 "/>
<path style=" stroke:none;fill-rule:nonzero;fill:rgb(0%,0%,0%);fill-opacity:1;" d="M 6.191406 1.015625 C 6.34375 1.015625 6.492188 1.015625 6.640625 1.015625 C 8.042969 1.011719 9.613281 1.074219 10.703125 2.082031 C 11.761719 3.21875 11.777344 4.910156 11.777344 6.371094 C 11.777344 6.410156 11.777344 6.449219 11.777344 6.488281 C 11.773438 7.972656 11.722656 9.582031 10.65625 10.738281 C 10.460938 10.917969 10.242188 11.050781 10.011719 11.179688 C 9.976562 11.199219 9.945312 11.21875 9.910156 11.238281 C 9.476562 11.476562 8.992188 11.578125 8.503906 11.65625 C 8.449219 11.664062 8.449219 11.664062 8.390625 11.671875 C 7.738281 11.765625 7.082031 11.777344 6.425781 11.777344 C 6.386719 11.777344 6.351562 11.777344 6.316406 11.777344 C 4.878906 11.773438 3.203125 11.75 2.085938 10.707031 C 1.046875 9.601562 1.007812 7.976562 1.011719 6.546875 C 1.011719 6.398438 1.011719 6.246094 1.011719 6.097656 C 1.011719 4.722656 1.082031 3.144531 2.085938 2.089844 C 2.792969 1.417969 3.6875 1.183594 4.640625 1.074219 C 4.675781 1.070312 4.714844 1.066406 4.757812 1.058594 C 5.234375 1.011719 5.714844 1.015625 6.191406 1.015625 Z M 6.191406 1.015625 "/>
<path style=" stroke:none;fill-rule:nonzero;fill:rgb(0%,0%,0%);fill-opacity:1;" d="M 18.613281 1.011719 C 18.6875 1.011719 18.6875 1.011719 18.765625 1.011719 C 20.214844 1.015625 21.820312 1.03125 22.917969 2.113281 C 23.96875 3.199219 23.984375 4.800781 23.984375 6.21875 C 23.984375 6.375 23.984375 6.527344 23.984375 6.679688 C 23.988281 8.070312 23.917969 9.625 22.917969 10.703125 C 21.785156 11.761719 20.09375 11.777344 18.632812 11.777344 C 18.59375 11.777344 18.558594 11.777344 18.523438 11.777344 C 17.035156 11.773438 15.417969 11.726562 14.261719 10.65625 C 13.230469 9.546875 13.222656 7.847656 13.222656 6.425781 C 13.222656 6.386719 13.222656 6.347656 13.222656 6.308594 C 13.226562 4.875 13.25 3.199219 14.292969 2.085938 C 15.4375 1.011719 17.136719 1.003906 18.613281 1.011719 Z M 18.613281 1.011719 "/>
</g>
</svg>
