<?xml version="1.0" encoding="UTF-8"?>
<svg xmlns="http://www.w3.org/2000/svg" xmlns:xlink="http://www.w3.org/1999/xlink" width="25px" height="25px" viewBox="0 0 25 25" version="1.1">
<g id="surface1">
<path style=" stroke:none;fill-rule:nonzero;fill:rgb(0%,0%,0%);fill-opacity:1;" d="M 22.8125 14.199219 C 23.730469 15.0625 23.929688 16.375 23.980469 17.570312 C 23.992188 17.910156 23.992188 18.246094 23.988281 18.585938 C 23.988281 18.636719 23.988281 18.6875 23.988281 18.742188 C 23.984375 20.199219 23.972656 21.8125 22.886719 22.917969 C 21.753906 24.007812 20.085938 23.988281 18.613281 23.988281 C 18.539062 23.988281 18.539062 23.988281 18.464844 23.992188 C 17.035156 23.992188 15.414062 23.949219 14.296875 22.917969 C 13.238281 21.78125 13.222656 20.089844 13.222656 18.628906 C 13.222656 18.589844 13.222656 18.550781 13.222656 18.511719 C 13.226562 17.042969 13.265625 15.429688 14.316406 14.289062 C 16.046875 12.65625 20.996094 12.691406 22.8125 14.199219 Z M 18.148438 14.796875 C 16.757812 14.816406 16.757812 14.816406 15.503906 15.347656 C 14.84375 16.054688 14.832031 17.101562 14.808594 18.015625 C 14.808594 18.070312 14.808594 18.070312 14.808594 18.125 C 14.707031 20.027344 14.707031 20.027344 15.390625 21.738281 C 16.226562 22.566406 17.773438 22.429688 18.855469 22.421875 C 20.382812 22.441406 20.382812 22.441406 21.734375 21.832031 C 22.507812 21.039062 22.421875 19.660156 22.421875 18.625 C 22.421875 18.570312 22.421875 18.570312 22.421875 18.515625 C 22.457031 16.839844 22.457031 16.839844 21.738281 15.390625 C 21.007812 14.789062 19.84375 14.816406 18.945312 14.796875 C 18.855469 14.792969 18.855469 14.792969 18.765625 14.789062 C 18.558594 14.789062 18.355469 14.792969 18.148438 14.796875 Z M 18.148438 14.796875 "/>
<path style=" stroke:none;fill-rule:nonzero;fill:rgb(0%,0%,0%);fill-opacity:1;" d="M 18.613281 1.011719 C 18.6875 1.011719 18.6875 1.011719 18.765625 1.011719 C 20.214844 1.015625 21.820312 1.03125 22.917969 2.113281 C 23.964844 3.203125 23.984375 4.796875 23.984375 6.21875 C 23.984375 6.375 23.984375 6.527344 23.984375 6.679688 C 23.988281 8.070312 23.917969 9.625 22.917969 10.703125 C 21.785156 11.761719 20.09375 11.777344 18.632812 11.777344 C 18.59375 11.777344 18.558594 11.777344 18.523438 11.777344 C 17.035156 11.773438 15.417969 11.726562 14.261719 10.65625 C 13.230469 9.546875 13.222656 7.847656 13.222656 6.425781 C 13.222656 6.386719 13.222656 6.347656 13.222656 6.308594 C 13.226562 4.875 13.25 3.199219 14.292969 2.085938 C 15.4375 1.011719 17.136719 1.003906 18.613281 1.011719 Z M 15.390625 3.261719 C 14.523438 4.3125 14.726562 6.488281 14.84375 7.765625 C 14.910156 8.398438 14.988281 9.164062 15.476562 9.617188 C 16.355469 10.324219 17.878906 10.230469 18.945312 10.203125 C 18.984375 10.203125 19.023438 10.203125 19.0625 10.203125 C 20.550781 10.191406 20.550781 10.191406 21.828125 9.523438 C 22.734375 8.394531 22.496094 6.195312 22.363281 4.84375 C 22.285156 4.171875 22.148438 3.511719 21.609375 3.0625 C 20.816406 2.515625 19.574219 2.578125 18.65625 2.578125 C 18.617188 2.578125 18.582031 2.578125 18.542969 2.578125 C 16.851562 2.539062 16.851562 2.539062 15.390625 3.261719 Z M 15.390625 3.261719 "/>
<path style=" stroke:none;fill-rule:nonzero;fill:rgb(0%,0%,0%);fill-opacity:1;" d="M 6.34375 13.222656 C 6.382812 13.222656 6.417969 13.222656 6.457031 13.222656 C 7.949219 13.226562 9.578125 13.265625 10.738281 14.34375 C 11.773438 15.460938 11.777344 17.167969 11.777344 18.601562 C 11.777344 18.640625 11.777344 18.675781 11.777344 18.714844 C 11.773438 20.144531 11.742188 21.808594 10.707031 22.914062 C 9.5625 23.988281 7.863281 23.996094 6.386719 23.988281 C 6.3125 23.988281 6.3125 23.988281 6.234375 23.988281 C 4.800781 23.984375 3.210938 23.972656 2.109375 22.914062 C 1.046875 21.804688 1.015625 20.234375 1.015625 18.78125 C 1.015625 18.625 1.015625 18.472656 1.015625 18.320312 C 1.011719 16.929688 1.082031 15.375 2.082031 14.296875 C 3.210938 13.242188 4.890625 13.222656 6.34375 13.222656 Z M 5.941406 14.796875 C 4.449219 14.8125 4.449219 14.8125 3.171875 15.476562 C 2.5 16.28125 2.578125 17.59375 2.578125 18.578125 C 2.578125 18.613281 2.578125 18.652344 2.578125 18.6875 C 2.539062 20.304688 2.539062 20.304688 3.167969 21.734375 C 3.957031 22.5 5.320312 22.421875 6.347656 22.421875 C 6.386719 22.421875 6.421875 22.421875 6.460938 22.421875 C 8.152344 22.460938 8.152344 22.460938 9.609375 21.738281 C 10.476562 20.6875 10.273438 18.511719 10.15625 17.234375 C 10.089844 16.601562 10.011719 15.835938 9.523438 15.382812 C 8.617188 14.652344 7.039062 14.773438 5.941406 14.796875 Z M 5.941406 14.796875 "/>
<path style=" stroke:none;fill-rule:nonzero;fill:rgb(0%,0%,0%);fill-opacity:1;" d="M 6.222656 1.011719 C 6.367188 1.011719 6.515625 1.011719 6.660156 1.011719 C 8.058594 1.011719 9.621094 1.078125 10.703125 2.082031 C 11.757812 3.210938 11.777344 4.890625 11.777344 6.34375 C 11.777344 6.382812 11.777344 6.417969 11.777344 6.457031 C 11.773438 7.949219 11.730469 9.574219 10.65625 10.738281 C 10.460938 10.917969 10.242188 11.050781 10.007812 11.183594 C 9.976562 11.199219 9.945312 11.21875 9.910156 11.238281 C 9.476562 11.476562 8.992188 11.578125 8.503906 11.65625 C 8.449219 11.664062 8.449219 11.664062 8.390625 11.671875 C 7.738281 11.765625 7.082031 11.777344 6.425781 11.777344 C 6.386719 11.777344 6.351562 11.777344 6.316406 11.777344 C 4.878906 11.773438 3.203125 11.75 2.085938 10.707031 C 1.046875 9.601562 1.007812 7.976562 1.011719 6.546875 C 1.011719 6.398438 1.011719 6.246094 1.011719 6.097656 C 1.011719 4.71875 1.082031 3.140625 2.085938 2.085938 C 3.175781 1.050781 4.808594 1.007812 6.222656 1.011719 Z M 3.160156 3.273438 C 2.503906 4.066406 2.578125 5.402344 2.578125 6.371094 C 2.578125 6.40625 2.578125 6.445312 2.578125 6.480469 C 2.542969 8.160156 2.542969 8.160156 3.261719 9.609375 C 3.996094 10.214844 5.15625 10.183594 6.054688 10.207031 C 6.109375 10.207031 6.167969 10.207031 6.226562 10.210938 C 6.378906 10.210938 6.535156 10.210938 6.6875 10.207031 C 6.726562 10.203125 6.765625 10.203125 6.804688 10.203125 C 8.21875 10.1875 8.21875 10.1875 9.496094 9.652344 C 10.15625 8.945312 10.167969 7.898438 10.191406 6.984375 C 10.191406 6.949219 10.191406 6.914062 10.191406 6.875 C 10.292969 4.96875 10.292969 4.96875 9.601562 3.257812 C 8.929688 2.570312 7.714844 2.589844 6.820312 2.578125 C 6.679688 2.578125 6.535156 2.578125 6.394531 2.578125 C 6.335938 2.578125 6.335938 2.578125 6.28125 2.578125 C 4.597656 2.542969 4.597656 2.542969 3.160156 3.273438 Z M 3.160156 3.273438 "/>
</g>
</svg>
