<?xml version="1.0" encoding="UTF-8"?>
<svg xmlns="http://www.w3.org/2000/svg" xmlns:xlink="http://www.w3.org/1999/xlink" width="25px" height="25px" viewBox="0 0 25 25" version="1.1">
<g id="surface1">
<path style=" stroke:none;fill-rule:nonzero;fill:rgb(0%,0%,0%);fill-opacity:1;" d="M 12.167969 0.078125 C 11.96875 0.179688 11.832031 0.351562 11.761719 0.589844 C 11.683594 0.84375 11.808594 1.171875 12.050781 1.355469 C 12.191406 1.464844 12.277344 1.488281 12.496094 1.488281 C 13.460938 1.488281 13.515625 0.09375 12.554688 0.015625 C 12.40625 0.00390625 12.269531 0.0234375 12.167969 0.078125 Z M 12.167969 0.078125 "/>
<path style=" stroke:none;fill-rule:nonzero;fill:rgb(0%,0%,0%);fill-opacity:1;" d="M 7.121094 3.480469 L 3.960938 5.292969 L 4.179688 5.527344 C 4.394531 5.757812 4.6875 6.292969 4.6875 6.453125 C 4.6875 6.5 4.707031 6.546875 4.730469 6.5625 C 4.757812 6.582031 6.027344 5.878906 7.550781 5.003906 C 9.074219 4.128906 10.328125 3.425781 10.335938 3.4375 C 10.355469 3.453125 7.300781 8.726562 7.226562 8.804688 C 7.207031 8.828125 6.644531 8.535156 5.988281 8.152344 C 5.328125 7.777344 4.765625 7.476562 4.742188 7.488281 C 4.722656 7.503906 4.671875 7.617188 4.640625 7.742188 C 4.570312 7.984375 4.28125 8.460938 4.113281 8.613281 C 4.054688 8.667969 4.003906 8.726562 4.003906 8.746094 C 4.003906 8.765625 4.550781 9.097656 5.226562 9.476562 L 6.441406 10.175781 L 6.351562 10.320312 C 6.304688 10.40625 5.582031 11.636719 4.757812 13.0625 L 3.246094 15.648438 L 3.234375 12.421875 L 3.222656 9.199219 L 2.867188 9.265625 C 2.523438 9.335938 2.054688 9.3125 1.792969 9.203125 C 1.714844 9.167969 1.710938 9.359375 1.710938 12.753906 L 1.710938 16.34375 L 2.054688 16.265625 C 3.277344 16.003906 4.574219 16.9375 4.730469 18.1875 C 4.816406 18.882812 4.632812 19.488281 4.199219 19.984375 C 4.078125 20.121094 4.007812 20.238281 4.035156 20.261719 C 4.058594 20.289062 5.464844 21.097656 7.152344 22.066406 L 10.230469 23.824219 L 10.308594 23.59375 C 10.433594 23.226562 10.585938 22.953125 10.800781 22.722656 C 10.914062 22.601562 10.992188 22.5 10.980469 22.488281 C 10.972656 22.480469 9.71875 21.761719 8.195312 20.894531 L 5.429688 19.3125 L 8.964844 19.296875 C 10.910156 19.292969 14.09375 19.292969 16.039062 19.296875 L 19.582031 19.3125 L 16.8125 20.894531 C 15.285156 21.765625 14.027344 22.484375 14.019531 22.496094 C 14.007812 22.5 14.085938 22.601562 14.199219 22.722656 C 14.414062 22.957031 14.566406 23.226562 14.691406 23.59375 L 14.769531 23.824219 L 17.847656 22.066406 C 19.542969 21.097656 20.941406 20.289062 20.96875 20.261719 C 20.996094 20.234375 20.929688 20.125 20.804688 19.988281 C 20.390625 19.539062 20.179688 18.828125 20.269531 18.164062 C 20.433594 16.929688 21.738281 16.003906 22.945312 16.265625 L 23.292969 16.34375 L 23.292969 9.195312 L 22.988281 9.257812 C 22.601562 9.339844 22.464844 9.339844 22.085938 9.261719 L 21.777344 9.195312 L 21.769531 12.421875 L 21.753906 15.648438 L 20.246094 13.0625 C 19.417969 11.636719 18.695312 10.40625 18.648438 10.328125 L 18.558594 10.179688 L 19.707031 9.527344 C 20.335938 9.164062 20.890625 8.84375 20.933594 8.8125 C 21.007812 8.757812 20.996094 8.730469 20.8125 8.515625 C 20.605469 8.285156 20.3125 7.742188 20.3125 7.601562 C 20.3125 7.558594 20.292969 7.515625 20.265625 7.496094 C 20.238281 7.480469 19.679688 7.777344 19.015625 8.152344 C 18.355469 8.535156 17.792969 8.828125 17.773438 8.804688 C 17.695312 8.71875 14.648438 3.453125 14.664062 3.433594 C 14.671875 3.421875 15.933594 4.128906 17.457031 5 C 18.980469 5.875 20.25 6.578125 20.269531 6.5625 C 20.292969 6.546875 20.3125 6.5 20.3125 6.453125 C 20.3125 6.292969 20.605469 5.757812 20.820312 5.527344 L 21.039062 5.292969 L 17.890625 3.484375 C 16.15625 2.496094 14.707031 1.679688 14.671875 1.667969 C 14.640625 1.660156 14.546875 1.773438 14.464844 1.917969 C 14.171875 2.4375 13.566406 2.867188 12.949219 2.992188 L 12.648438 3.054688 L 14.550781 6.324219 C 16.191406 9.140625 16.445312 9.605469 16.378906 9.648438 C 16.339844 9.683594 15.800781 9.996094 15.179688 10.351562 L 14.0625 10.996094 L 14.253906 11.234375 C 14.476562 11.511719 14.640625 11.824219 14.71875 12.132812 L 14.769531 12.347656 L 15.992188 11.644531 C 16.664062 11.265625 17.226562 10.960938 17.246094 10.976562 C 17.277344 11.003906 20.230469 16.058594 20.371094 16.328125 C 20.421875 16.414062 20.40625 16.410156 20.234375 16.308594 C 19.574219 15.917969 14.859375 13.238281 14.804688 13.222656 C 14.765625 13.210938 14.707031 13.308594 14.652344 13.460938 C 14.554688 13.746094 14.386719 14.027344 14.136719 14.300781 L 13.96875 14.480469 L 16.777344 16.09375 L 19.585938 17.699219 L 16.039062 17.714844 C 14.09375 17.71875 10.902344 17.71875 8.957031 17.714844 L 5.414062 17.699219 L 8.222656 16.09375 L 11.03125 14.492188 L 10.8125 14.238281 C 10.621094 14.023438 10.414062 13.660156 10.273438 13.289062 C 10.230469 13.183594 10.132812 13.238281 7.691406 14.636719 C 6.292969 15.4375 5.023438 16.167969 4.863281 16.253906 C 4.640625 16.382812 4.589844 16.402344 4.628906 16.328125 C 4.769531 16.058594 7.726562 11.003906 7.753906 10.976562 C 7.773438 10.960938 8.339844 11.265625 9.007812 11.644531 L 10.230469 12.347656 L 10.285156 12.132812 C 10.367188 11.824219 10.523438 11.511719 10.746094 11.234375 L 10.941406 10.992188 L 10.609375 10.800781 C 10.429688 10.691406 9.90625 10.394531 9.449219 10.136719 C 8.996094 9.871094 8.605469 9.644531 8.585938 9.628906 C 8.566406 9.609375 9.40625 8.121094 10.449219 6.324219 L 12.355469 3.054688 L 12.050781 2.992188 C 11.4375 2.867188 10.832031 2.4375 10.539062 1.917969 C 10.460938 1.777344 10.367188 1.660156 10.335938 1.664062 C 10.304688 1.664062 8.859375 2.484375 7.121094 3.480469 Z M 7.121094 3.480469 "/>
<path style=" stroke:none;fill-rule:nonzero;fill:rgb(0%,0%,0%);fill-opacity:1;" d="M 2.230469 6.316406 C 1.769531 6.488281 1.582031 6.9375 1.808594 7.367188 C 2.066406 7.878906 2.824219 7.90625 3.125 7.410156 C 3.476562 6.835938 2.867188 6.089844 2.230469 6.316406 Z M 2.230469 6.316406 "/>
<path style=" stroke:none;fill-rule:nonzero;fill:rgb(0%,0%,0%);fill-opacity:1;" d="M 22.300781 6.316406 C 21.953125 6.445312 21.777344 6.6875 21.777344 7.039062 C 21.777344 7.457031 22.09375 7.761719 22.53125 7.761719 C 22.832031 7.761719 23.066406 7.621094 23.199219 7.359375 C 23.5 6.765625 22.921875 6.097656 22.300781 6.316406 Z M 22.300781 6.316406 "/>
<path style=" stroke:none;fill-rule:nonzero;fill:rgb(0%,0%,0%);fill-opacity:1;" d="M 12.109375 12.070312 C 11.851562 12.25 11.75 12.421875 11.75 12.683594 C 11.75 13.453125 12.746094 13.738281 13.148438 13.089844 C 13.453125 12.597656 13.085938 11.960938 12.5 11.960938 C 12.34375 11.960938 12.222656 11.996094 12.109375 12.070312 Z M 12.109375 12.070312 "/>
<path style=" stroke:none;fill-rule:nonzero;fill:rgb(0%,0%,0%);fill-opacity:1;" d="M 2.230469 17.792969 C 2.003906 17.875 1.886719 17.976562 1.789062 18.1875 C 1.546875 18.6875 1.90625 19.238281 2.460938 19.238281 C 2.910156 19.238281 3.222656 18.933594 3.222656 18.5 C 3.222656 17.996094 2.699219 17.625 2.230469 17.792969 Z M 2.230469 17.792969 "/>
<path style=" stroke:none;fill-rule:nonzero;fill:rgb(0%,0%,0%);fill-opacity:1;" d="M 22.300781 17.792969 C 21.953125 17.917969 21.777344 18.164062 21.777344 18.515625 C 21.777344 19.277344 22.832031 19.527344 23.203125 18.847656 C 23.515625 18.269531 22.914062 17.574219 22.300781 17.792969 Z M 22.300781 17.792969 "/>
<path style=" stroke:none;fill-rule:nonzero;fill:rgb(0%,0%,0%);fill-opacity:1;" d="M 12.179688 23.554688 C 11.988281 23.636719 11.832031 23.832031 11.761719 24.078125 C 11.714844 24.234375 11.71875 24.300781 11.789062 24.488281 C 12.070312 25.230469 13.105469 25.121094 13.253906 24.335938 C 13.296875 24.121094 13.136719 23.765625 12.929688 23.617188 C 12.765625 23.496094 12.378906 23.460938 12.179688 23.554688 Z M 12.179688 23.554688 "/>
</g>
</svg>
